<svg width="490" height="490" viewBox="0 0 490 490" fill="none" xmlns="http://www.w3.org/2000/svg">
<g clip-path="url(#clip0_539_319)">
<path d="M490 245C490.03 271.79 485.659 298.404 477.061 323.777C476.568 325.227 476.063 326.671 475.546 328.112C466.442 353.291 453.276 376.809 436.571 397.734C431.584 403.989 426.3 409.986 420.719 415.724C415.137 421.473 409.278 426.94 403.141 432.128C368.909 461.158 327.325 480.171 282.975 487.072H282.968C277.314 487.949 271.604 488.632 265.839 489.123C258.975 489.703 252.029 489.995 245 490C212.314 490.043 179.953 483.524 149.833 470.83C119.712 458.136 92.4467 439.526 69.651 416.101C68.0491 414.463 66.4713 412.801 64.9177 411.114C61.047 406.917 57.3237 402.59 53.7477 398.132C51.7399 395.624 49.7804 393.078 47.8692 390.492C36.0969 374.588 26.3023 357.311 18.7011 339.042C15.4596 331.261 12.6288 323.316 10.2204 315.238C10.0464 314.666 9.87968 314.093 9.71297 313.52C9.35054 312.288 9.00021 311.049 8.66195 309.802C2.89584 288.685 -0.0173698 266.89 -4.52546e-05 245C-4.52546e-05 109.692 109.692 0 245 0C380.308 0 490 109.692 490 245Z" fill="#F2F2F2"/>
<path d="M103.906 146.443C103.527 148.746 103.657 151.104 104.288 153.352C104.918 155.599 106.034 157.68 107.556 159.45C109.078 161.219 110.97 162.633 113.098 163.592C115.226 164.552 117.538 165.033 119.872 165.002L158.981 278.798L183.935 261.648L135.762 147.674C135.45 143.757 133.712 140.091 130.877 137.369C128.042 134.648 124.308 133.061 120.381 132.909C116.454 132.758 112.608 134.052 109.572 136.546C106.535 139.04 104.52 142.562 103.906 146.443Z" fill="#A0616A"/>
<path d="M308.03 184.946C290.662 204.705 247.838 239.527 212.559 263.505C204.934 268.688 197.657 273.356 191.068 277.263C186.617 279.902 182.478 282.185 178.752 284.048C176.252 285.293 173.521 286.009 170.731 286.151C167.941 286.292 165.151 285.856 162.538 284.869C159.924 283.882 157.542 282.366 155.542 280.417C153.541 278.467 151.964 276.125 150.911 273.537L126.483 214.44L134.935 208.837L155.775 195.014L160.508 191.883L180.05 238.426L200.657 221.884L213.451 211.613L271.773 164.81L276.803 163.316L288.538 174.769L296.838 182.873L304.645 184.228C305.812 184.431 306.942 184.671 308.03 184.946Z" fill="#FFBE00"/>
<path d="M463.847 347.322C465.058 348.858 466.312 350.388 467.566 351.925C463.246 360.794 458.39 369.392 453.025 377.671C452.627 377.389 452.228 377.106 451.829 376.823C451.766 376.789 451.706 376.75 451.648 376.707C450.162 375.649 448.669 374.605 447.183 373.547V373.54C445.957 369.368 445.273 365.056 445.146 360.71C445.913 360.534 446.606 360.127 447.133 359.543C447.661 358.96 447.996 358.228 448.093 357.448C448.19 356.668 448.045 355.877 447.678 355.182C447.31 354.487 446.737 353.921 446.038 353.563C445.842 353.222 445.704 352.976 445.509 352.628C445.516 352.541 445.53 352.446 445.538 352.359C446.676 343.306 458.215 340.146 463.847 347.322Z" fill="white"/>
<path d="M476.858 316.298C477.728 318.69 478.521 321.109 479.236 323.554C478.743 325.004 478.238 326.448 477.721 327.888C477.525 327.127 477.322 326.366 477.112 325.605C475.933 321.373 474.517 317.211 472.872 313.138C471.523 309.796 470.03 306.525 468.392 303.323C459.484 285.931 446.576 270.902 430.729 259.47C424.18 257.955 418.252 254.469 413.745 249.481C412.12 247.689 410.76 245.673 409.708 243.494C410.375 243.4 411.042 243.269 411.694 243.132C411.897 243.088 412.107 243.037 412.31 242.994L412.39 242.979C413.103 242.814 413.753 242.446 414.262 241.92C414.771 241.394 415.118 240.732 415.259 240.013C415.401 239.295 415.332 238.551 415.061 237.871C414.79 237.191 414.328 236.604 413.731 236.18C413.361 235.912 412.984 235.651 412.615 235.39C412.049 234.977 411.477 234.586 410.904 234.18C410.844 234.142 410.786 234.101 410.73 234.056C410.078 233.592 409.425 233.143 408.78 232.672C409.281 231.057 410.146 229.579 411.31 228.352C415.362 224.169 422.596 224.264 427.322 227.67C432.055 231.077 434.433 237.043 434.737 242.856C435.005 247.836 433.933 252.765 432.519 257.571C432.874 257.832 433.244 258.078 433.599 258.346C440.125 263.183 446.16 268.648 451.619 274.663C448.466 267.182 447.321 257.426 448.14 250.706C449.075 243.052 452.793 235.782 455.838 228.54C459.484 219.842 471.922 219.726 475.43 228.482C475.467 228.569 475.503 228.649 475.532 228.736C474.945 229.323 474.379 229.932 473.836 230.563C473.153 231.357 472.726 232.339 472.611 233.381C472.497 234.422 472.699 235.473 473.191 236.398C473.684 237.322 474.445 238.076 475.373 238.561C476.302 239.046 477.355 239.24 478.395 239.116L478.504 239.101C478.956 241.685 479.213 244.3 479.272 246.923C479.362 254.26 477.935 261.537 475.082 268.298C472.228 275.058 468.008 281.156 462.688 286.21C462.34 286.536 461.999 286.855 461.644 287.166C465.002 291.941 468.017 296.948 470.668 302.149C473.021 306.733 475.089 311.459 476.858 316.298Z" fill="white"/>
<path d="M337.191 248.298L335.002 398.64L158.167 393.566L186.407 331.228C186.204 329.228 198.802 315.187 198.729 313.107C198.512 307.011 203.064 301.364 203.803 294.986C205.311 281.83 196.678 232.148 200.657 221.884C202.353 217.301 204.525 212.909 207.138 208.779C209.399 205.358 211.719 203.053 213.937 202.219L220.475 186.983L226.274 178.285L271.773 164.81L276.803 163.316L288.539 174.769L296.838 182.873L304.645 184.228C305.812 184.431 306.942 184.671 308.03 184.946C313.266 186.154 318.147 188.572 322.28 192.006C335.908 203.582 337.495 225.357 337.191 248.298Z" fill="#FFBE00"/>
<path d="M438.746 397.51C433.759 403.766 428.475 409.763 422.893 415.501L403.772 415.516L300.937 415.632L282.424 415.654L270.116 415.668L251.806 415.683L237.723 415.697L211.708 415.726L196.362 415.748L164.049 415.777L148.624 415.799L105.879 415.842L79.0306 415.871L71.8256 415.878C70.2237 414.24 68.6459 412.578 67.0923 410.891C63.2216 406.694 59.4983 402.367 55.9224 397.909L70.8398 397.895L81.0022 397.887L104.531 397.858L149.936 397.815L165.281 397.8L171.486 397.793H171.507L176.378 397.786L178.56 397.779L184.149 397.771H186.512L203.082 397.757L238.824 397.713L254.554 397.699L269.616 397.684L283.736 397.67L303.996 397.648L412.202 397.539L438.746 397.51Z" fill="#CCCCCC"/>
<path d="M194.09 171.77L194.051 171.773C191.96 171.968 189.877 171.324 188.261 169.983C186.645 168.642 185.628 166.714 185.433 164.623L181.311 120.624C180.565 112.742 181.411 104.791 183.8 97.2425C188.481 82.5102 198.667 70.1528 212.235 62.7457C219.241 58.9311 226.947 56.5746 234.888 55.818C267.375 52.7229 279.248 59.4891 299.316 109.038C319.384 158.586 303.444 153.103 303.444 153.103C303.545 154.163 303.431 155.233 303.109 156.248C302.477 158.229 301.105 159.89 299.278 160.882C298.34 161.391 297.31 161.705 296.249 161.808C257.842 171.57 219.087 181.847 194.084 171.77L194.09 171.77Z" fill="#2F2E41"/>
<path d="M265.577 97.5077C270.398 104.641 272.997 113.043 273.046 121.653C273.095 130.263 270.591 138.694 265.851 145.881C261.111 153.069 254.348 158.691 246.414 162.036C238.481 165.382 229.735 166.302 221.279 164.68C215.682 163.624 210.35 161.469 205.591 158.337C200.833 155.206 196.744 151.162 193.56 146.439C188.749 139.308 186.157 130.912 186.11 122.31C186.064 113.708 188.566 105.285 193.3 98.1027C198.035 90.9205 204.789 85.3008 212.713 81.9522C220.637 78.6035 229.374 77.6759 237.824 79.2862C243.426 80.3356 248.764 82.4868 253.528 85.615C258.292 88.7432 262.387 92.7861 265.577 97.5093L265.577 97.5077Z" fill="#9E616A"/>
<path d="M167.692 125.512C167.102 119.279 167.771 112.99 169.66 107.02C170.098 92.4164 174.335 79.1889 192.147 79.7441C197.653 76.7489 203.705 74.8918 209.943 74.2832L218.745 73.4141C218.844 73.4042 218.943 73.3947 219.042 73.3855C225.14 72.8179 231.29 73.4571 237.142 75.2664C242.993 77.0757 248.43 80.0198 253.144 83.9306C257.857 87.8413 261.754 92.6422 264.612 98.059C267.47 103.476 269.233 109.402 269.801 115.501L269.883 116.382L251.261 118.203L243.246 101.051L243.642 118.951L234.024 119.895L229.982 111.242L230.179 120.267C215.899 132.844 194.244 133.503 167.782 126.395L167.692 125.512Z" fill="#2F2E41"/>
<path d="M227.259 167.263C227.101 168.713 227.352 170.178 227.985 171.492C228.304 172.165 228.716 172.79 229.208 173.348C229.629 173.824 230.105 174.249 230.626 174.613C232.169 175.687 234.044 176.176 235.915 175.992C236.031 175.98 236.148 175.966 236.264 175.95C236.38 175.933 236.496 175.914 236.611 175.893C236.728 175.872 236.844 175.848 236.959 175.82C237.074 175.793 237.19 175.764 237.306 175.732L243.805 173.911L251.089 153.601L252.759 171.422L282.313 163.194L275.228 87.5667L224.854 92.5302L226.236 93.8604C230.826 98.3282 234.095 103.976 235.682 110.182C237.257 116.47 237.744 122.982 237.12 129.435C236.537 135.96 235.329 142.414 233.512 148.708C231.931 154.281 230.03 159.759 227.818 165.113C227.532 165.8 227.344 166.524 227.259 167.263Z" fill="#2F2E41"/>
<path d="M233.976 405.706C233.11 405.706 232.255 405.512 231.473 405.14L91.9245 408.701C90.8537 408.193 89.9619 407.373 89.3669 406.349C88.772 405.324 88.5018 404.143 88.5921 402.961C88.6824 401.78 89.129 400.654 89.8728 399.731C90.6166 398.809 91.6227 398.134 92.7582 397.795L184.055 370.573C185 370.292 186.001 370.253 186.966 370.462L328.186 387.675C329.435 387.945 330.562 388.616 331.395 389.587C332.227 390.558 332.718 391.774 332.794 393.05C332.87 394.327 332.527 395.593 331.816 396.655C331.105 397.718 330.066 398.519 328.857 398.935L235.889 405.384C235.273 405.597 234.627 405.706 233.976 405.706Z" fill="#3F3D56"/>
<path d="M239.109 395.992C238.479 395.992 237.859 395.831 237.309 395.524L123.975 400.818C123.332 400.457 122.812 399.911 122.483 399.25C122.154 398.59 122.032 397.845 122.133 397.114C122.233 396.383 122.551 395.699 123.046 395.152C123.54 394.604 124.188 394.218 124.905 394.044L165.935 384.086C166.575 383.931 167.245 383.95 167.875 384.143L273.235 384.016C273.985 384.246 274.642 384.709 275.11 385.339C275.577 385.969 275.831 386.732 275.834 387.516C275.837 388.301 275.588 389.065 275.125 389.698C274.662 390.331 274.008 390.8 273.26 391.035L240.205 395.825C239.85 395.936 239.48 395.992 239.109 395.992Z" fill="#2F2E41"/>
<path d="M227.179 389.951C229.141 391.216 231.356 392.035 233.669 392.351C235.981 392.667 238.335 392.472 240.564 391.78C242.793 391.088 244.843 389.916 246.57 388.346C248.297 386.776 249.659 384.846 250.559 382.693L370.519 392.116L364.72 362.397L240.99 361.218C237.272 359.945 233.217 360.08 229.592 361.597C225.967 363.115 223.025 365.909 221.322 369.45C219.62 372.992 219.276 377.035 220.355 380.814C221.435 384.592 223.863 387.843 227.179 389.951Z" fill="#A0616A"/>
<path d="M298.034 196.406C298.034 196.406 316.155 181.909 337.901 208.004C352.566 225.601 380.855 331.985 383.201 376.07C383.349 378.859 382.919 381.649 381.939 384.265C380.959 386.881 379.449 389.266 377.503 391.271C375.558 393.275 373.22 394.857 370.635 395.916C368.05 396.975 365.274 397.488 362.481 397.424L298.541 396.311L291.391 356.118L341.873 356.716L298.034 196.406Z" fill="#FFBE00"/>
<path d="M226.215 405.723C224.021 405.721 221.85 405.281 219.829 404.43L90.4846 407.381C87.071 405.957 84.2373 403.424 82.4417 400.19C80.6461 396.957 79.9936 393.212 80.5896 389.562L75.7834 275.97C76.4208 271.912 78.5564 268.241 81.7684 265.682C84.9805 263.122 89.0355 261.86 93.1329 262.144L213.214 267.125C215.519 267.276 217.767 267.91 219.811 268.985C221.855 270.061 223.65 271.554 225.08 273.368C226.51 275.182 227.543 277.277 228.111 279.516C228.68 281.755 228.771 284.088 228.38 286.365L242.449 392.025C241.787 395.854 239.797 399.326 236.827 401.831C233.858 404.337 230.1 405.715 226.215 405.723Z" fill="#3F3D56"/>
<path d="M127.998 67.5344L74.0185 67.3822C72.5716 67.3805 71.183 67.9525 70.1571 68.9729C69.1313 69.9934 68.5518 71.3789 68.5459 72.8258L68.3502 144.303C68.3471 145.749 68.918 147.136 69.9373 148.161C70.9567 149.186 72.3411 149.764 73.7866 149.769L103.73 149.856L127.774 149.921C129.22 149.924 130.608 149.352 131.633 148.331C132.658 147.31 133.236 145.924 133.239 144.477L133.253 140.252L133.442 73.007C133.445 71.5597 132.873 70.1704 131.852 69.1443C130.832 68.1182 129.446 67.5392 127.998 67.5344Z" fill="#E6E6E6"/>
<path d="M124.193 71.8038L77.8023 71.6733C76.4476 71.6716 75.1475 72.207 74.1869 73.1622C73.2263 74.1174 72.6836 75.4144 72.6776 76.7691L72.5471 122.725C72.538 128.76 74.923 134.552 79.179 138.831C83.4349 143.11 89.2143 145.527 95.2495 145.55L104.064 145.572L123.99 145.63C125.345 145.633 126.646 145.098 127.607 144.143C128.567 143.187 129.11 141.889 129.115 140.534L129.129 135.91L129.288 76.9285C129.291 75.5735 128.756 74.2727 127.801 73.3118C126.846 72.3509 125.548 71.8086 124.193 71.8038Z" fill="white"/>
<path d="M118.981 103.204H82.8109C82.5259 103.204 82.2435 103.261 81.9802 103.37C81.7168 103.479 81.4774 103.639 81.2759 103.84C81.0743 104.042 80.9144 104.281 80.8053 104.545C80.6962 104.808 80.64 105.09 80.64 105.375C80.64 105.66 80.6962 105.943 80.8053 106.206C80.9144 106.47 81.0743 106.709 81.2759 106.91C81.4774 107.112 81.7168 107.272 81.9802 107.381C82.2435 107.49 82.5259 107.546 82.8109 107.546H118.981C119.557 107.546 120.109 107.318 120.516 106.91C120.923 106.503 121.152 105.951 121.152 105.375C121.152 104.8 120.923 104.247 120.516 103.84C120.109 103.433 119.557 103.204 118.981 103.204Z" fill="#FFBE00"/>
<path d="M90.7626 91.3024H82.8109C82.2352 91.3024 81.683 91.5311 81.2759 91.9382C80.8687 92.3453 80.64 92.8975 80.64 93.4733C80.64 94.0491 80.8687 94.6012 81.2759 95.0084C81.683 95.4155 82.2352 95.6442 82.8109 95.6442H90.7626C91.3383 95.6442 91.8905 95.4155 92.2977 95.0084C92.7048 94.6012 92.9335 94.0491 92.9335 93.4733C92.9335 92.8975 92.7048 92.3453 92.2977 91.9382C91.8905 91.5311 91.3383 91.3024 90.7626 91.3024Z" fill="#FFBE00"/>
<path d="M118.981 122.29H82.8109C82.2352 122.29 81.683 122.519 81.2759 122.926C80.8687 123.333 80.64 123.885 80.64 124.461C80.64 125.036 80.8687 125.589 81.2759 125.996C81.683 126.403 82.2352 126.632 82.8109 126.632H118.981C119.557 126.632 120.109 126.403 120.516 125.996C120.923 125.589 121.152 125.036 121.152 124.461C121.152 123.885 120.923 123.333 120.516 122.926C120.109 122.519 119.557 122.29 118.981 122.29Z" fill="#FFBE00"/>
<path d="M118.981 112.751H82.811C82.2362 112.751 81.6849 112.979 81.2785 113.385C80.872 113.792 80.6437 114.343 80.6437 114.918C80.6437 115.493 80.872 116.044 81.2785 116.45C81.6849 116.857 82.2362 117.085 82.811 117.085H118.981C119.556 117.085 120.107 116.857 120.514 116.45C120.92 116.044 121.148 115.493 121.148 114.918C121.148 114.343 120.92 113.792 120.514 113.385C120.107 112.979 119.556 112.751 118.981 112.751Z" fill="#FFBE00"/>
<path d="M111.953 98.9788C109.413 98.9788 106.93 98.2257 104.818 96.8146C102.706 95.4035 101.06 93.3979 100.088 91.0514C99.1165 88.7049 98.8622 86.1228 99.3577 83.6318C99.8532 81.1407 101.076 78.8525 102.872 77.0566C104.668 75.2606 106.956 74.0375 109.447 73.542C111.938 73.0465 114.52 73.3009 116.867 74.2728C119.214 75.2448 121.219 76.8907 122.63 79.0026C124.041 81.1144 124.794 83.5972 124.794 86.1371C124.791 89.5417 123.436 92.8058 121.029 95.2133C118.621 97.6208 115.357 98.975 111.953 98.9788ZM111.953 74.1877C109.589 74.1877 107.279 74.8885 105.314 76.2015C103.349 77.5145 101.817 79.3808 100.913 81.5642C100.008 83.7477 99.7718 86.1503 100.233 88.4683C100.694 90.7862 101.832 92.9154 103.503 94.5865C105.174 96.2577 107.303 97.3958 109.621 97.8568C111.939 98.3179 114.342 98.0813 116.525 97.1769C118.709 96.2724 120.575 94.7409 121.888 92.7758C123.201 90.8107 123.902 88.5004 123.902 86.1371C123.898 82.969 122.638 79.9318 120.398 77.6916C118.158 75.4514 115.121 74.1913 111.953 74.1877Z" fill="#FFBE00"/>
<path d="M117.346 91.1112C116.459 86.5316 114.611 82.192 111.925 78.3783C111.865 78.2794 111.78 78.1978 111.679 78.1411C111.577 78.0845 111.463 78.0547 111.347 78.0547C111.231 78.0547 111.117 78.0845 111.016 78.1411C110.915 78.1978 110.83 78.2794 110.769 78.3783C108.43 82.4701 106.935 86.9894 106.372 91.669C106.268 92.5221 107.607 92.5146 107.71 91.669C107.899 90.1525 108.192 88.6508 108.588 87.1749C108.639 87.1648 108.689 87.1495 108.738 87.1291C110.518 86.2355 112.528 85.908 114.5 86.1907C114.517 86.1933 114.534 86.1896 114.551 86.1912C115.202 87.9037 115.705 89.6687 116.055 91.467C116.218 92.312 117.509 91.9542 117.346 91.1112ZM109.07 85.5333C109.684 83.6271 110.466 81.7792 111.407 80.0113C112.403 81.5327 113.268 83.136 113.992 84.8039C112.317 84.6779 110.636 84.9271 109.07 85.5333Z" fill="#FFBE00"/>
</g>
<defs>
<clipPath id="clip0_539_319">
<rect width="490" height="490" fill="white"/>
</clipPath>
</defs>
</svg>
